<svg width="24" height="24" viewBox="0 0 24 24" fill="none" xmlns="http://www.w3.org/2000/svg">
<rect width="24" height="24" rx="4" fill="#004638"/>
<path d="M13 11.8333C13 12.265 12.7667 12.6383 12.4167 12.8367V17.6667H11.25V12.8367C10.9 12.6325 10.6667 12.265 10.6667 11.8333C10.6667 11.1917 11.1917 10.6667 11.8333 10.6667C12.475 10.6667 13 11.1917 13 11.8333ZM11.8333 8.33333C9.9025 8.33333 8.33333 9.9025 8.33333 11.8333C8.33333 12.8483 8.77083 13.7642 9.465 14.4L10.2933 13.5717C9.80917 13.1458 9.5 12.5275 9.5 11.8333C9.5 10.5442 10.5442 9.5 11.8333 9.5C13.1225 9.5 14.1667 10.5442 14.1667 11.8333C14.1667 12.5275 13.8575 13.1458 13.3733 13.5717L14.2017 14.4C14.8958 13.7642 15.3333 12.8483 15.3333 11.8333C15.3333 9.9025 13.7642 8.33333 11.8333 8.33333ZM11.8333 6C8.61333 6 6 8.61333 6 11.8333C6 13.4958 6.7 14.9892 7.81417 16.0567L8.6425 15.2283C7.73833 14.3767 7.16667 13.1692 7.16667 11.8333C7.16667 9.26083 9.26083 7.16667 11.8333 7.16667C14.4058 7.16667 16.5 9.26083 16.5 11.8333C16.5 13.1692 15.9283 14.3767 15.0242 15.2283L15.8525 16.0567C16.9667 14.9892 17.6667 13.4958 17.6667 11.8333C17.6667 8.61333 15.0533 6 11.8333 6Z" fill="#139142"/>
</svg>
