<svg width="24" height="24" viewBox="0 0 24 24" fill="none" xmlns="http://www.w3.org/2000/svg">
<path d="M16.1042 14.2917H15.1496L14.8112 13.9654C15.9954 12.5879 16.7083 10.7996 16.7083 8.85417C16.7083 4.51625 13.1921 1 8.85417 1C4.51625 1 1 4.51625 1 8.85417C1 13.1921 4.51625 16.7083 8.85417 16.7083C10.7996 16.7083 12.5879 15.9954 13.9654 14.8112L14.2917 15.1496V16.1042L20.3333 22.1337L22.1337 20.3333L16.1042 14.2917ZM8.85417 14.2917C5.84542 14.2917 3.41667 11.8629 3.41667 8.85417C3.41667 5.84542 5.84542 3.41667 8.85417 3.41667C11.8629 3.41667 14.2917 5.84542 14.2917 8.85417C14.2917 11.8629 11.8629 14.2917 8.85417 14.2917Z" fill="white"/>
</svg>
