<svg width="54" height="86" viewBox="0 0 54 86" fill="none" xmlns="http://www.w3.org/2000/svg">
<path d="M27 33L25.985 32.0649C22.38 28.7564 20 26.5744 20 23.8965C20 21.7144 21.694 20 23.85 20C25.068 20 26.237 20.5738 27 21.4807C27.763 20.5738 28.932 20 30.15 20C32.306 20 34 21.7144 34 23.8965C34 26.5744 31.62 28.7564 28.015 32.0719L27 33Z" fill="#1DB954"/>
<path d="M26.3238 64.6971L26.3231 64.6965C24.5106 63.0331 23.0465 61.6883 22.0295 60.4299C21.0184 59.1789 20.5 58.0731 20.5 56.8965C20.5 54.9849 21.9758 53.5 23.85 53.5C24.9144 53.5 25.9454 54.0039 26.6174 54.8026L27 55.2573L27.3826 54.8026C28.0546 54.0039 29.0856 53.5 30.15 53.5C32.0242 53.5 33.5 54.9849 33.5 56.8965C33.5 58.0731 32.9816 59.1789 31.9704 60.4309C30.9534 61.6901 29.4896 63.0365 27.6774 64.7031L27.6765 64.7039L27.0013 65.3213L26.3238 64.6971Z" stroke="#C4C4C4"/>
<rect x="0.5" y="0.5" width="53" height="85" rx="4.5" stroke="#7B61FF" stroke-dasharray="10 5"/>
</svg>
